<?xml version="1.0" encoding="UTF-8" standalone="no"?>
<svg
   xmlns:dc="http://purl.org/dc/elements/1.1/"
   xmlns:cc="http://creativecommons.org/ns#"
   xmlns:rdf="http://www.w3.org/1999/02/22-rdf-syntax-ns#"
   xmlns:svg="http://www.w3.org/2000/svg"
   xmlns="http://www.w3.org/2000/svg"
   xmlns:sodipodi="http://sodipodi.sourceforge.net/DTD/sodipodi-0.dtd"
   xmlns:inkscape="http://www.inkscape.org/namespaces/inkscape"
   inkscape:version="1.0 (4035a4fb49, 2020-05-01)"
   sodipodi:docname="information.svg"
   version="1.1"
   width="512"
   viewBox="0 0 524.235 524.235"
   height="512"
   enable-background="new 0 0 524.235 524.235"
   id="Capa_1">
  <metadata
     id="metadata9">
    <rdf:RDF>
      <cc:Work
         rdf:about="">
        <dc:format>image/svg+xml</dc:format>
        <dc:type
           rdf:resource="http://purl.org/dc/dcmitype/StillImage" />
      </cc:Work>
    </rdf:RDF>
  </metadata>
  <defs
     id="defs7" />
  <sodipodi:namedview
     inkscape:current-layer="Capa_1"
     inkscape:window-maximized="1"
     inkscape:window-y="-8"
     inkscape:window-x="-8"
     inkscape:cy="256"
     inkscape:cx="145.25843"
     inkscape:zoom="1.7382812"
     showgrid="false"
     id="namedview5"
     inkscape:window-height="1058"
     inkscape:window-width="1920"
     inkscape:pageshadow="2"
     inkscape:pageopacity="0"
     guidetolerance="10"
     gridtolerance="10"
     objecttolerance="10"
     borderopacity="1"
     bordercolor="#666666"
     pagecolor="#ffffff" />
  <path
     style="fill:#56a5eb;fill-opacity:1"
     id="path2"
     d="m262.118 0c-144.53 0-262.118 117.588-262.118 262.118s117.588 262.118 262.118 262.118 262.118-117.588 262.118-262.118-117.589-262.118-262.118-262.118zm17.05 417.639c-12.453 2.076-37.232 7.261-49.815 8.303-10.651.882-20.702-5.215-26.829-13.967-6.143-8.751-7.615-19.95-3.968-29.997l49.547-136.242h-51.515c-.044-28.389 21.25-49.263 48.485-57.274 12.997-3.824 37.212-9.057 49.809-8.255 7.547.48 20.702 5.215 26.829 13.967 6.143 8.751 7.615 19.95 3.968 29.997l-49.547 136.242h51.499c.01 28.356-20.49 52.564-48.463 57.226zm15.714-253.815c-18.096 0-32.765-14.671-32.765-32.765 0-18.096 14.669-32.765 32.765-32.765s32.765 14.669 32.765 32.765c0 18.095-14.668 32.765-32.765 32.765z" />
</svg>
