<?xml version="1.0" encoding="UTF-8" standalone="no"?>
<svg
   xmlns:dc="http://purl.org/dc/elements/1.1/"
   xmlns:cc="http://creativecommons.org/ns#"
   xmlns:rdf="http://www.w3.org/1999/02/22-rdf-syntax-ns#"
   xmlns:svg="http://www.w3.org/2000/svg"
   xmlns="http://www.w3.org/2000/svg"
   xmlns:sodipodi="http://sodipodi.sourceforge.net/DTD/sodipodi-0.dtd"
   xmlns:inkscape="http://www.inkscape.org/namespaces/inkscape"
   inkscape:version="1.0 (4035a4fb49, 2020-05-01)"
   height="54.580059"
   width="61.813179"
   sodipodi:docname="lungs02.svg"
   id="svg14"
   xml:space="preserve"
   viewBox="0 0 61.813179 54.580059"
   y="0px"
   x="0px"
   version="1.1"><metadata
     id="metadata20"><rdf:RDF><cc:Work
         rdf:about=""><dc:format>image/svg+xml</dc:format><dc:type
           rdf:resource="http://purl.org/dc/dcmitype/StillImage" /></cc:Work></rdf:RDF></metadata><defs
     id="defs18" /><sodipodi:namedview
     inkscape:current-layer="svg14"
     inkscape:window-maximized="1"
     inkscape:window-y="-8"
     inkscape:window-x="-8"
     inkscape:cy="20.908007"
     inkscape:cx="30.906589"
     inkscape:zoom="11.125"
     showgrid="false"
     id="namedview16"
     inkscape:window-height="1058"
     inkscape:window-width="1920"
     inkscape:pageshadow="2"
     inkscape:pageopacity="0"
     guidetolerance="10"
     gridtolerance="10"
     objecttolerance="10"
     borderopacity="1"
     bordercolor="#666666"
     pagecolor="#ffffff" /><g
     transform="translate(-1.0934109,-4.7099705)"
     id="g8"><path
       id="path2"
       d="m 20.428856,57.872246 c -0.364054,0.07381 -0.723181,0.157467 -1.08231,0.245987 C 11.273301,60.199257 6.5848732,59.097248 4.1938458,57.965691 2.9048865,57.350731 2.0292256,56.081471 1.856988,54.63018 1.2617236,49.562866 -0.6569714,33.037613 5.389299,21.368095 10.008965,12.443752 16.921108,8.9163054 20.04018,7.5240516 c 3.296236,-1.4710455 6.174247,0.4968343 6.853168,4.1079374 0.506745,2.676288 -0.142629,5.682278 -0.570701,7.222087 -0.167254,0.605112 -0.08852,1.239773 0.167312,1.810474 0,0.0049 0.0049,0.0049 0.0049,0.0099 0.231613,0.384161 0.440538,1.983103 0.576471,3.275202 0.126751,1.204803 -0.302999,2.419061 -1.211298,3.220687 -0.0049,0.0043 -0.0097,0.0086 -0.01461,0.01287 l -0.432938,0.368976 c -0.05411,0.04919 -0.103294,0.07873 -0.147554,0.113144 -0.04432,0.02955 -0.08858,0.05411 -0.132841,0.08858 -0.162388,0.08852 -0.314869,0.152538 -0.432997,0.182026 -0.211513,0.04426 -0.403328,0.05411 -0.546019,0.04426 -0.191936,-0.02462 -0.378826,-0.07375 -0.555988,-0.147613 -0.152479,-0.07375 -0.30496,-0.177042 -0.447651,-0.300036 -0.122991,-0.132841 -0.23121,-0.285381 -0.314867,-0.43792 -0.20665,-0.408313 -0.324716,-0.944543 -0.344415,-1.544733 -0.02949,-1.13648 0.245985,-2.435287 0.865873,-4.093225 0.0098,-0.02462 0.0197,-0.05411 0.02955,-0.08359 0.137766,-0.428072 0.113142,-0.885571 -0.07375,-1.298869 -0.201784,-0.432876 -0.555988,-0.767442 -1.023336,-0.944543 -0.875721,-0.319794 -1.844887,0.07381 -2.258187,0.934755 -0.644449,1.392252 -1.387327,3.276537 -1.456211,5.475628 -0.02949,0.905208 0.162388,2.017065 0.452635,2.882936 -2.125284,1.466061 -4.550723,1.402104 -4.845893,1.387329 -0.516593,-0.03933 -1.018411,0.127917 -1.412012,0.467408 -0.403329,0.344354 -0.649314,0.826536 -0.683785,1.343069 -0.04432,0.526382 0.118067,1.038047 0.462423,1.441497 0.344355,0.398465 0.816687,0.639527 1.338143,0.683785 0.157464,0.01477 0.378827,0.0197 0.551065,0.0197 0.796929,0 2.55822,-0.103294 4.496553,-0.856022 -0.398464,0.821552 -0.728107,1.731743 -0.98394,2.715683 -2.405681,1.352917 -3.822617,3.330647 -4.344074,4.166973 -0.172178,0.280457 -0.250909,0.41816 -0.29517,0.51659 -0.216437,0.452576 -0.255834,0.964245 -0.103294,1.446366 0.162328,0.501819 0.506743,0.915054 0.954393,1.141403 0.467347,0.255833 1.003637,0.309883 1.515306,0.152477 0.491971,-0.152477 0.895359,-0.487045 1.141344,-0.939678 0,0 0.0049,-0.0049 0.0049,-0.0098 0.08366,-0.142628 0.260699,-0.427952 0.526383,-0.777291 0.0098,1.549717 0.07381,4.167031 0.373901,5.947903 l 0.423147,2.769852 c 0.0836,0.526382 0.364054,0.988865 0.792006,1.298748 0.423147,0.309944 0.944603,0.432937 1.461136,0.354202 1.072521,-0.172115 1.795763,-1.141342 1.653072,-2.18924 0,-0.0049 -0.0049,-0.05904 -0.0049,-0.06396 l -0.359129,-2.705833 c -0.388675,-2.976383 -0.639585,-9.347431 1.18068,-12.122147 0.0098,-0.01477 1.052883,-1.44144 3.753793,-2.799282 0.354205,-0.177162 0.688712,-0.368976 1.008503,-0.560854 0.142632,5.195174 0.08366,12.983096 0.118069,14.040785 0.314867,10.341219 -5.751161,12.255049 -7.320516,12.579707 z" /><path
       id="path4"
       d="m 62.143013,54.63018 c -0.172237,1.451291 -1.047901,2.720551 -2.336861,3.335511 -2.391025,1.131557 -7.079452,2.233566 -15.152698,0.152542 -0.359127,-0.08852 -0.718258,-0.172177 -1.08231,-0.245987 -1.569355,-0.324657 -7.635384,-2.238487 -7.320515,-12.579704 0.03441,-1.05769 -0.02456,-8.845612 0.118065,-14.040785 0.319794,0.191877 0.659226,0.383692 1.013428,0.560854 1.338146,0.673996 2.272961,1.367691 2.868225,1.889149 0.600189,0.526382 0.860947,0.880645 0.860947,0.880645 1.835037,2.794415 1.618599,8.953831 1.200378,12.156559 L 41.94762,49.47921 c -0.142692,1.067597 0.580551,2.041748 1.653073,2.213864 0.103294,0.01477 0.206588,0.02462 0.309883,0.02462 0.413296,0 0.81176,-0.132843 1.151253,-0.378826 0.427951,-0.309883 0.708408,-0.772365 0.792003,-1.303672 l 0.423145,-2.745232 c 0.300095,-1.800568 0.364056,-4.432655 0.373906,-5.967598 0.265682,0.349338 0.442722,0.634663 0.526378,0.77729 0,0.0049 0.0049,0.0099 0.0049,0.0099 0.245987,0.452633 0.649376,0.787201 1.141346,0.939678 0.506741,0.157406 1.047958,0.103355 1.490681,-0.137703 0.466556,-0.238205 0.808334,-0.639576 0.973037,-1.137829 0.155697,-0.471 0.04919,-1.215252 -0.192966,-1.648201 -0.04738,-0.0847 -0.111771,-0.193619 -0.204445,-0.342952 -0.516529,-0.826478 -1.933468,-2.799283 -4.339146,-4.157124 -0.255836,-0.98394 -0.585475,-1.894131 -0.98394,-2.715683 1.938332,0.752727 3.699623,0.856022 4.496552,0.856022 0.172237,0 0.3936,-0.0049 0.551063,-0.0197 0.521458,-0.04426 0.99379,-0.285321 1.338146,-0.683785 0.344353,-0.40345 0.506741,-0.915115 0.462422,-1.426784 -0.03447,-0.531246 -0.280457,-1.013428 -0.683785,-1.357783 -0.3936,-0.339491 -0.890495,-0.501817 -1.412014,-0.467407 -0.295169,0.01477 -2.720607,0.07873 -4.84589,-1.387329 0.290245,-0.865871 0.482121,-1.977728 0.452633,-2.882936 -0.06888,-2.199091 -0.811764,-4.083376 -1.46606,-5.495327 -0.40345,-0.84125 -1.372616,-1.23485 -2.272961,-0.910132 -0.442722,0.172176 -0.796928,0.506743 -0.998711,0.939619 -0.186893,0.413298 -0.211513,0.865872 -0.07375,1.293944 0.0098,0.02949 0.0197,0.05897 0.02955,0.08852 0.619885,1.657938 0.895359,2.956745 0.865872,4.083376 -0.0197,0.610038 -0.137768,1.146268 -0.329701,1.530019 -0.09837,0.172177 -0.206588,0.329642 -0.329582,0.462483 -0.142692,0.122993 -0.29517,0.226288 -0.447651,0.300035 -0.177162,0.07387 -0.364051,0.122992 -0.51659,0.142689 -0.182087,0.01477 -0.373905,0.0049 -0.541218,-0.02955 -0.157402,-0.03928 -0.314807,-0.103294 -0.477195,-0.191814 -0.04426,-0.03447 -0.08852,-0.05903 -0.132843,-0.08858 -0.04426,-0.03441 -0.08852,-0.06396 -0.147553,-0.113144 l -0.413238,-0.349279 c -0.01053,-0.0093 -0.02105,-0.01864 -0.03156,-0.028 -0.900997,-0.80266 -1.331977,-2.008379 -1.208805,-3.208751 0.133145,-1.29755 0.339169,-2.906805 0.571228,-3.291706 0,-0.0049 0.0049,-0.0049 0.0049,-0.0099 0.255833,-0.570701 0.334564,-1.205362 0.167313,-1.810474 -0.42807,-1.539809 -1.077446,-4.545799 -0.570702,-7.222087 0.678921,-3.6111033 3.556935,-5.578983 6.853169,-4.1079375 3.119072,1.3922534 10.031215,4.9197005 14.650879,13.8440435 6.046268,11.669515 4.127578,28.194768 3.532314,33.262082 z" /><path
       id="path6"
       d="m 50.689934,31.724029 c 0.03444,0.408345 -0.270577,0.767502 -0.683846,0.797021 -0.02951,0.0049 -0.18695,0.01474 -0.442753,0.01474 -0.979015,0 -3.389682,-0.162361 -5.697021,-1.589054 -0.408005,-0.250704 -0.811096,-0.540706 -1.204346,-0.874891 -0.09764,-0.08297 -0.236679,-0.08754 -0.33963,-0.01126 -0.13306,0.09859 -0.27111,0.192281 -0.40913,0.276111 -0.09347,0.05411 -0.113174,0.177103 -0.03444,0.25088 1.790749,1.633344 2.671395,3.940683 3.109257,5.86923 2.425407,1.200405 3.837357,3.14859 4.358845,3.980019 0.132843,0.216468 0.211544,0.354232 0.221393,0.383751 0.191845,0.364051 0.04918,0.811733 -0.314869,0.998683 -0.364051,0.196801 -0.811763,0.05411 -0.998714,-0.309944 -0.01967,-0.02459 -0.974091,-1.805519 -2.941971,-3.138771 0.113144,1.018383 0.103325,1.687454 0.103325,1.687454 0,0 0.07378,4.467095 -0.354233,7.03027 l -0.423088,2.76487 c -0.06396,0.408344 -0.442783,0.68874 -0.846203,0.624813 -0.403389,-0.06396 -0.67889,-0.432938 -0.624783,-0.831432 l 0.0049,-0.04429 0.359127,-2.700913 c 0.02952,-0.226314 1.200409,-9.042411 -1.39228,-12.992942 0,0 -1.136452,-1.648091 -4.206337,-3.192881 -0.590371,-0.300095 -1.161045,-0.64448 -1.692379,-1.042974 -0.04426,-0.02952 -1.436547,-1.274186 -2.012143,-1.953108 -0.570701,-0.678921 -1.072521,-1.416876 -1.510349,-2.189272 -0.0049,-0.0049 -0.0049,-0.0099 -0.0098,-0.01477 -0.314869,-0.560823 -1.102009,-0.560823 -1.416878,0 -0.0049,0.0049 -0.0049,0.0098 -0.0098,0.01477 -0.437832,0.772396 -0.939649,1.510351 -1.510351,2.189272 -0.575598,0.678922 -1.96788,1.923589 -2.012142,1.953108 -0.531336,0.398494 -1.102007,0.742879 -1.692377,1.042974 -3.069887,1.54479 -4.206337,3.192881 -4.206337,3.192881 -2.592692,3.950531 -1.421801,12.766628 -1.392285,12.992942 l 0.359129,2.700913 0.0049,0.04429 c 0.05411,0.398494 -0.221393,0.767471 -0.624782,0.831432 -0.403418,0.06393 -0.782246,-0.216469 -0.846203,-0.624813 l -0.423088,-2.76487 c -0.428011,-2.563175 -0.354233,-7.030269 -0.354233,-7.030269 0,0 -0.0098,-0.669072 0.103323,-1.687455 -1.967878,1.333252 -2.922302,3.114178 -2.94197,3.138771 -0.186952,0.364056 -0.634661,0.506745 -0.998714,0.309945 -0.364052,-0.186951 -0.506713,-0.634632 -0.314868,-0.998684 0.0098,-0.02952 0.08855,-0.167282 0.221393,-0.383751 0.521486,-0.831429 1.933437,-2.779614 4.358847,-3.980019 0.43786,-1.928547 1.318506,-4.235885 3.109255,-5.86923 0.07873,-0.07378 0.05903,-0.19677 -0.03444,-0.250879 -0.13802,-0.08383 -0.276072,-0.177519 -0.40913,-0.276112 -0.10295,-0.07628 -0.241993,-0.07171 -0.339631,0.01126 -0.393249,0.334185 -0.796339,0.624188 -1.204345,0.874891 -2.307341,1.426693 -4.718005,1.589055 -5.697022,1.589055 -0.255803,0 -0.413237,-0.0099 -0.442754,-0.01474 -0.413269,-0.02952 -0.718287,-0.388676 -0.683846,-0.79702 0.02952,-0.413239 0.388646,-0.718258 0.796989,-0.683815 0.03937,0 3.320797,0.226286 6.026633,-1.903921 0.137735,-0.10825 0.275501,-0.221394 0.408344,-0.344385 -0.255835,-0.280428 -0.782246,-1.844889 -0.737955,-3.21258 0.05411,-1.810446 0.63463,-3.463457 1.343067,-4.998402 0.127918,-0.265653 0.437861,-0.398494 0.723183,-0.2952 0.2952,0.113174 0.447708,0.442785 0.334566,0.737955 v 0.0049 c -0.560854,1.495607 -0.98394,3.055145 -0.944605,4.555647 0.02459,0.737955 0.167284,1.456241 0.477226,2.06628 0.15251,0.285351 0.339461,0.54608 0.560854,0.772396 0.231211,0.20662 0.49197,0.388645 0.777291,0.526411 0.0049,0 0.0049,0.0049 0.0098,0.0049 0.290245,0.122994 0.600189,0.206619 0.915056,0.245985 0.319794,0.02952 0.634661,0.0049 0.944575,-0.05906 0.30505,-0.07378 0.59037,-0.19677 0.860946,-0.354204 0.127919,-0.0984 0.241091,-0.157435 0.40342,-0.29517 l 0.432936,-0.368978 c 0.570703,-0.506743 1.092189,-1.067597 1.559566,-1.667786 0.457529,-0.605112 0.860949,-1.254517 1.205303,-1.928513 0.34931,-0.674026 0.708437,-3.581556 0.782246,-4.334255 0.02952,-0.18695 0.0098,-4.781964 0.0098,-4.781964 l 0.06373,-8.9453555 c 0.0083,-0.9716678 0.798324,-1.754992 1.770029,-1.754992 h 4e-6 c 0.97784,0 1.770443,0.7928834 1.770092,1.7707257 l -0.0027,8.9296218 c 0,0 -0.01967,4.595014 0.0098,4.781964 0.07381,0.752699 0.432934,3.660229 0.782246,4.334255 0.344353,0.673996 0.747772,1.323401 1.205299,1.928513 0.467381,0.600189 0.988865,1.161043 1.559567,1.667786 l 0.432937,0.368978 c 0.162327,0.137736 0.275502,0.19677 0.40342,0.29517 0.270576,0.157434 0.555897,0.280426 0.860947,0.354204 0.309913,0.06396 0.624782,0.08858 0.944572,0.05906 0.314869,-0.03937 0.624813,-0.122991 0.915058,-0.245985 0.0049,0 0.0049,-0.0049 0.0099,-0.0049 0.28532,-0.137766 0.546077,-0.319791 0.77729,-0.526411 0.221394,-0.226316 0.408344,-0.487045 0.560852,-0.772396 0.309944,-0.610039 0.452637,-1.328325 0.477226,-2.06628 0.03934,-1.500502 -0.383751,-3.06004 -0.944603,-4.555647 v -0.0049 c -0.113144,-0.29517 0.03937,-0.624781 0.334568,-0.737955 0.285321,-0.103294 0.595265,0.02955 0.723179,0.2952 0.708439,1.534945 1.28896,3.187956 1.343071,4.998402 0.04429,1.367691 -0.48212,2.932152 -0.737957,3.21258 0.132843,0.122991 0.270607,0.236135 0.408345,0.344385 2.705833,2.130207 5.987266,1.903921 6.026634,1.903921 0.408341,-0.03444 0.767472,0.270576 0.796986,0.683814 z" /></g></svg>
