<?xml version="1.0" encoding="UTF-8" standalone="no"?>
<svg
   xmlns:dc="http://purl.org/dc/elements/1.1/"
   xmlns:cc="http://creativecommons.org/ns#"
   xmlns:rdf="http://www.w3.org/1999/02/22-rdf-syntax-ns#"
   xmlns:svg="http://www.w3.org/2000/svg"
   xmlns="http://www.w3.org/2000/svg"
   xmlns:sodipodi="http://sodipodi.sourceforge.net/DTD/sodipodi-0.dtd"
   xmlns:inkscape="http://www.inkscape.org/namespaces/inkscape"
   inkscape:version="1.0 (4035a4fb49, 2020-05-01)"
   height="77.704193"
   width="75.402794"
   sodipodi:docname="lungs01.svg"
   id="svg10"
   xml:space="preserve"
   viewBox="0 0 75.402794 77.704193"
   y="0px"
   x="0px"
   version="1.1"><metadata
     id="metadata16"><rdf:RDF><cc:Work
         rdf:about=""><dc:format>image/svg+xml</dc:format><dc:type
           rdf:resource="http://purl.org/dc/dcmitype/StillImage" /></cc:Work></rdf:RDF></metadata><defs
     id="defs14" /><sodipodi:namedview
     inkscape:current-layer="svg10"
     inkscape:window-maximized="1"
     inkscape:window-y="-8"
     inkscape:window-x="-8"
     inkscape:cy="33.45618"
     inkscape:cx="40.051532"
     inkscape:zoom="7.12"
     showgrid="false"
     id="namedview12"
     inkscape:window-height="1058"
     inkscape:window-width="1920"
     inkscape:pageshadow="2"
     inkscape:pageopacity="0"
     guidetolerance="10"
     gridtolerance="10"
     objecttolerance="10"
     borderopacity="1"
     bordercolor="#666666"
     pagecolor="#ffffff" /><g
     transform="translate(-11.77431,-9.1)"
     clip-path="none"
     id="g4"><path
       id="path2"
       d="M 85.1,50.7 C 80.6,28.4 66.2,21.8 63.3,20.6 62.9,20.4 62.5,20.3 62.1,20.3 57.2,20.1 55.2,29.5 54.5,39.7 L 51.8,36 V 11.3 c 0,-1.2 -1,-2.2 -2.2,-2.2 -1.2,0 -2.2,1 -2.2,2.2 V 36 l -2.8,3.8 C 43.9,29.6 41.9,20 36.9,20.3 c -0.4,0 -0.8,0.1 -1.2,0.3 -2.9,1.1 -17.3,7.8 -21.8,30.1 0,0 -3.4,13.7 -1.6,32.2 0.2,2.2 2.1,3.9 4.3,3.8 1.4,-0.1 3.3,-0.6 5.8,-2 0,0 10,-3.9 16.7,-11.2 3.6,-3.8 5.5,-8.9 5.7,-14.1 0.1,-2.8 0.2,-6.6 0.1,-10.8 l 4.6,-6.7 4.5,6.6 c -0.1,4.3 0,8.2 0.1,11 0.2,5.2 2.1,10.3 5.7,14.1 6.7,7.3 16.7,11.2 16.7,11.2 2.5,1.4 4.4,1.9 5.8,2 2.2,0.1 4.1,-1.6 4.3,-3.8 1.9,-18.5 -1.5,-32.3 -1.5,-32.3" /></g></svg>
