<?xml version="1.0" encoding="UTF-8" standalone="no"?>
<svg
   xmlns:dc="http://purl.org/dc/elements/1.1/"
   xmlns:cc="http://creativecommons.org/ns#"
   xmlns:rdf="http://www.w3.org/1999/02/22-rdf-syntax-ns#"
   xmlns:svg="http://www.w3.org/2000/svg"
   xmlns="http://www.w3.org/2000/svg"
   xmlns:sodipodi="http://sodipodi.sourceforge.net/DTD/sodipodi-0.dtd"
   xmlns:inkscape="http://www.inkscape.org/namespaces/inkscape"
   inkscape:version="1.0 (4035a4fb49, 2020-05-01)"
   sodipodi:docname="lungs-solid.svg"
   id="svg4"
   version="1.1"
   viewBox="0 0 640 512"
   role="img"
   class="svg-inline--fa fa-lungs fa-w-20"
   data-icon="lungs"
   data-prefix="fas"
   focusable="false"
   aria-hidden="true">
  <metadata
     id="metadata10">
    <rdf:RDF>
      <cc:Work
         rdf:about="">
        <dc:format>image/svg+xml</dc:format>
        <dc:type
           rdf:resource="http://purl.org/dc/dcmitype/StillImage" />
      </cc:Work>
    </rdf:RDF>
  </metadata>
  <defs
     id="defs8" />
  <sodipodi:namedview
     inkscape:current-layer="svg4"
     inkscape:window-maximized="1"
     inkscape:window-y="-8"
     inkscape:window-x="-8"
     inkscape:cy="256"
     inkscape:cx="209.25843"
     inkscape:zoom="1.7382812"
     showgrid="false"
     id="namedview6"
     inkscape:window-height="1058"
     inkscape:window-width="1920"
     inkscape:pageshadow="2"
     inkscape:pageopacity="0"
     guidetolerance="10"
     gridtolerance="10"
     objecttolerance="10"
     borderopacity="1"
     bordercolor="#666666"
     pagecolor="#ffffff" />
  <path
     style="fill:#56a5eb;fill-opacity:1;"
     id="path2"
     d="M636.11 390.15C614.44 308.85 580.07 231 534.1 159.13 511.98 124.56 498.03 96 454.05 96 415.36 96 384 125.42 384 161.71v60.11l-32.88-21.92a15.996 15.996 0 0 1-7.12-13.31V16c0-8.84-7.16-16-16-16h-16c-8.84 0-16 7.16-16 16v170.59c0 5.35-2.67 10.34-7.12 13.31L256 221.82v-60.11C256 125.42 224.64 96 185.95 96c-43.98 0-57.93 28.56-80.05 63.13C59.93 231 25.56 308.85 3.89 390.15 1.3 399.84 0 409.79 0 419.78c0 61.23 62.48 105.44 125.24 88.62l59.5-15.95c42.18-11.3 71.26-47.47 71.26-88.62v-87.49l-85.84 57.23a7.992 7.992 0 0 1-11.09-2.22l-8.88-13.31a7.992 7.992 0 0 1 2.22-11.09L320 235.23l167.59 111.72a7.994 7.994 0 0 1 2.22 11.09l-8.88 13.31a7.994 7.994 0 0 1-11.09 2.22L384 316.34v87.49c0 41.15 29.08 77.31 71.26 88.62l59.5 15.95C577.52 525.22 640 481.01 640 419.78c0-9.99-1.3-19.94-3.89-29.63z"
     fill="currentColor" />
</svg>
